<?xml version="1.0" encoding="utf-8"?>
<!-- Generator: Adobe Illustrator 18.0.0, SVG Export Plug-In . SVG Version: 6.00 Build 0)  -->
<!DOCTYPE svg PUBLIC "-//W3C//DTD SVG 1.1//EN" "http://www.w3.org/Graphics/SVG/1.1/DTD/svg11.dtd">
<svg version="1.1" id="Layer_1" xmlns="http://www.w3.org/2000/svg" xmlns:xlink="http://www.w3.org/1999/xlink" x="0px" y="0px"
	 viewBox="-267 294 89.5 32.3" enable-background="new -267 294 89.5 32.3" xml:space="preserve">
<polygon fill="#7BB1DB" points="-215.1,294 -221.8,304.7 -228.5,294 -230.4,294 -230.4,326.3 -228.5,326.3 -221.8,315.5 
	-215.1,326.3 -213.3,326.3 -213.3,326.2 -213.3,294 "/>
<polygon fill="#958437" points="-240.3,294 -230.4,310.1 -240.3,326.3 -230.4,326.3 -230.4,294 "/>
<polygon fill="#739833" points="-213.3,294 -213.3,326.2 -213.3,326.3 -203.4,326.3 -213.3,310.1 -203.4,294 "/>
<path fill="#C9D200" d="M-189.3,294h-14.1l-9.9,16.1l9.9,16.1v-7.1h16.7c7,0,9.1-5.5,9.1-10.3V305C-177.5,298.7-179.8,294-189.3,294
	 M-186.8,307c0,1.9-0.9,4.1-3.2,4.1h-13.4V302h12.5c3,0,4.1,1.2,4.1,3.4L-186.8,307L-186.8,307z"/>
<polygon fill="#F9B500" points="-240.3,294 -240.3,313.5 -257.1,294 -267,294 -267,326.3 -257.1,326.3 -257.1,306.8 -240.3,326.3 
	-230.4,310.1 "/>
</svg>
