<?xml version="1.0" encoding="utf-8"?>
<!-- Generator: Adobe Illustrator 18.0.0, SVG Export Plug-In . SVG Version: 6.00 Build 0)  -->
<!DOCTYPE svg PUBLIC "-//W3C//DTD SVG 1.1//EN" "http://www.w3.org/Graphics/SVG/1.1/DTD/svg11.dtd">
<svg version="1.1" id="Layer_1" xmlns="http://www.w3.org/2000/svg" xmlns:xlink="http://www.w3.org/1999/xlink" x="0px" y="0px"
	 viewBox="0 0 181.5 263.5" enable-background="new 0 0 181.5 263.5" xml:space="preserve">
<polygon fill="#F8B518" points="31.7,83.5 31.3,83.5 31.3,162.6 31.7,162.7 49.5,167.7 69,251.9 69,251.9 69,78.6 "/>
<polygon fill="#C8D22D" points="119.1,78.6 119.1,251.9 138.7,167.7 156.7,162.6 156.7,83.5 "/>
<path fill="#F8B518" d="M60.7,44.7c0,8.5,3.2,16.2,8.4,22.1V22.7C63.8,28.6,60.7,36.3,60.7,44.7z"/>
<path fill="#7DB1DB" d="M119.1,66.7V22.8C113,15.8,104,11.4,94,11.4c-9.7,0-18.5,4.2-24.6,10.8c0,0,0,0,0,0
	c-0.1,0.2-0.3,0.3-0.4,0.5v44.1c0.1,0.2,0.3,0.3,0.4,0.5v0c4,4.4,9.2,7.7,15.1,9.4L69,78.6v173.3h50V78.6l-15.6-1.9
	C109.6,74.9,115,71.4,119.1,66.7z"/>
<path fill="#C8D22D" d="M119.6,23.3c-0.1-0.1-0.2-0.2-0.3-0.3c-0.1-0.1-0.2-0.2-0.2-0.3v43.9c0.1-0.1,0.2-0.2,0.2-0.2
	c0.1-0.1,0.2-0.2,0.3-0.3c4.9-5.8,7.8-13.3,7.8-21.4C127.3,36.6,124.4,29.1,119.6,23.3z"/>
</svg>
